<svg id="Layer_1" data-name="Layer 1" xmlns="http://www.w3.org/2000/svg" viewBox="0 0 100 100"><defs><style>.cls-1{fill:#414141;}.cls-2{fill:#ca96fd;}.cls-3{fill:#333;}.cls-4{fill:#cafd96;}.cls-5{fill:#1a1a1a;opacity:0.5;}.cls-6{fill:#ebddd0;}.cls-7{fill:#f5cfcc;}.cls-8{fill:#d3afa3;}.cls-9{fill:#e6e6e6;}.cls-10{fill:#d42f00;}</style></defs><rect class="cls-1" x="29.55" y="20.41" width="39.1" height="61.34" rx="19.12"/><path class="cls-2" d="M70.47,76.38a36.67,36.67,0,0,1-20.3,6.13,42.27,42.27,0,0,1-5.05-.29c-.65-.07-1.3-.16-2-.26A34.38,34.38,0,0,1,29.3,76.64a12.31,12.31,0,0,1,2.57-4.24,9.55,9.55,0,0,1,6.88-2.92h5.1A6,6,0,0,0,50,75.39a5.88,5.88,0,0,0,5.89-6l.07.11h5.24A9.74,9.74,0,0,1,70.47,76.38Z"/><path class="cls-3" d="M44.56,56.25a5,5,0,0,0,5.07,3.59,4.33,4.33,0,0,0,4.6-3.67.74.74,0,0,0-.75-.75.77.77,0,0,0-.75.75c-.16,1.55-1.88,2.23-3.24,2.17A3.48,3.48,0,0,1,46,55.85c-.23-.94-1.68-.54-1.45.4Z"/><path class="cls-4" d="M45.12,73.83v7.91c-.65-.07-1.3-.15-2-.26V73.83a1,1,0,0,1,1-1h.06A1,1,0,0,1,45.12,73.83Z"/><rect class="cls-4" x="54.03" y="71.82" width="1.96" height="8.8" rx="0.84"/><ellipse class="cls-5" cx="49.49" cy="70.33" rx="12.51" ry="5.32"/><ellipse class="cls-2" cx="49.49" cy="69.37" rx="11.21" ry="6.29"/><path class="cls-6" d="M71.53,43v5.42a3.06,3.06,0,0,1-3,3.1A3,3,0,0,1,67,51.13,18.8,18.8,0,0,1,55.71,63.55V67a6,6,0,0,1-12.06,0V63.82a18.78,18.78,0,0,1-12-12.38,3.35,3.35,0,0,1-.85.12,3.06,3.06,0,0,1-3-3.1V43a3.06,3.06,0,0,1,3-3.11v-.38a18.73,18.73,0,0,1,18.46-19,18.1,18.1,0,0,1,13.05,5.56,19.15,19.15,0,0,1,5.41,13.43V40a3.17,3.17,0,0,1,.76-.1,3,3,0,0,1,2.13.91A3.19,3.19,0,0,1,71.53,43Z"/><circle class="cls-3" cx="42.61" cy="44.33" r="1.53"/><circle class="cls-3" cx="56.96" cy="44.33" r="1.53"/><circle class="cls-7" cx="37.03" cy="51.99" r="4.6"/><circle class="cls-7" cx="61.56" cy="51.99" r="4.6"/><path class="cls-1" d="M68.47,36.66a3.94,3.94,0,0,1-.3,1.53H45l-2-8.19a.62.62,0,0,0-1.2,0l-1.82,8.17H29.66a3.94,3.94,0,0,1-.3-1.53,19.56,19.56,0,0,1,39.11,0Z"/><path class="cls-8" d="M52.8,48.38a2.92,2.92,0,0,1-5.82,0"/><path class="cls-3" d="M56,53.78a6.32,6.32,0,0,1-2.37,4.94l-.1.07A6.2,6.2,0,0,1,50.92,60l-.28.05a6.11,6.11,0,0,1-1,.07h-.42l-.37,0a6.36,6.36,0,0,1-2.64-1l0,0a6.31,6.31,0,0,1-2.84-5.27Z"/><path class="cls-9" d="M44.54,53.78H54.72a0,0,0,0,1,0,0v1a.77.77,0,0,1-.77.77H45.3a.77.77,0,0,1-.77-.77v-1A0,0,0,0,1,44.54,53.78Z"/><path class="cls-10" d="M53.51,58.79A6.2,6.2,0,0,1,50.92,60l-.28.05a6.11,6.11,0,0,1-1,.07h-.42l-.37,0a6.36,6.36,0,0,1-2.64-1l0,0a2.27,2.27,0,0,1,2.44-1.75,2.88,2.88,0,0,1,1.23.26,2.88,2.88,0,0,1,1.23-.26A2.38,2.38,0,0,1,53.51,58.79Z"/></svg>